<?xml version="1.0" encoding="utf-8"?>
<!-- Generator: Adobe Illustrator 23.0.2, SVG Export Plug-In . SVG Version: 6.00 Build 0)  -->
<svg version="1.2" baseProfile="tiny-ps" xmlns:xlink="http://www.w3.org/1999/xlink" width="504px" height="504px" viewBox="0 0 504 504" xmlns="http://www.w3.org/2000/svg">
  <title>LogoGreenFinal</title>
<rect fill="#FFFFFF" width="504" height="504" />
<g>
	<path fill="#588E38" d="M415.5,131.53c8.9,0.62,16.49,0.45,23.8,1.78c17.84,3.24,30.65,17.7,32.21,36.51   c1.31,15.91-6.9,33.06-24.4,39.72c-8.56,3.26-17.95,5.25-27.1,5.93c-41.93,3.14-78.8-9.21-109.96-37.75   c-2.33-2.13-4.7-4.32-6.53-6.86c-4.17-5.77-2.49-12.43,4.01-15.37c23.78-10.78,48.63-17.98,74.55-21.17   C393.61,132.92,405.26,132.36,415.5,131.53z" />
	<path fill="#588E38" d="M88.48,132.26c37.12-0.32,72.62,7.36,106.65,22.07c10.26,4.43,11.73,11.9,3.75,19.77   c-23.27,22.95-50.99,36.95-83.58,40.77c-18.49,2.17-36.95,1.96-54.74-4.17c-19.4-6.67-29.81-25.49-26.19-46.06   c3.18-18.08,19.92-31.95,39.13-32.37C78.48,132.17,83.48,132.26,88.48,132.26z" />
	<path fill="#588E38" d="M206.68,217.16c7.83-0.23,11.39,4.09,9.26,11.76c-11.58,41.85-38.19,69.68-79.16,83.56   c-17.02,5.77-34.56-1.93-41.69-17.26c-7.47-16.06-2.16-33.43,13.31-43.5c28.78-18.72,60.33-29.85,94.29-34.35   C204.01,217.2,205.35,217.22,206.68,217.16z" />
	<path fill="#588E38" d="M412.94,281.15c-0.22,22.33-21.07,38.43-42.82,31.75c-42.65-13.11-69.61-41.95-81.48-84.86   c-1.82-6.56,2.19-11.38,9.03-10.84c23.57,1.89,46.18,7.89,67.6,17.79c11.14,5.15,21.89,11.25,32.38,17.64   C408.08,258.98,412.96,268.9,412.94,281.15z" />
	<path fill="#588E38" d="M231.22,280.74c0-9.49-0.11-18.98,0.03-28.47c0.17-11.59,10.01-20.96,21.76-20.92   c11.44,0.04,21.43,9.32,21.69,20.57c0.73,32.14,0.55,64.29-3.21,96.24c-2.54,21.56-6.54,42.94-9.91,64.39   c-0.21,1.31-0.57,2.6-0.92,3.88c-1.1,3.92-3.42,6.47-7.76,6.4c-4.29-0.06-6.82-2.51-7.62-6.54c-2.36-12.05-4.97-24.07-6.78-36.21   C233.58,347.16,230.68,314.06,231.22,280.74z" />
	<path fill="#588E38" d="M290.02,180.73c0.11,20.9-15.9,37.08-36.75,37.15c-20.95,0.06-37.08-15.89-37.14-36.75   c-0.06-20.97,15.84-37.04,36.75-37.15C273.82,143.87,289.9,159.79,290.02,180.73z" />
	<path fill="#588E38" d="M274.74,110.81c-0.01,11.83-9.74,21.73-21.46,21.81c-11.83,0.08-22.02-10.18-21.87-22.04   c0.15-11.8,10.04-21.5,21.84-21.45C265.14,89.19,274.74,98.88,274.74,110.81z" />
</g>
</svg>